# xmcd
#
# Track frame offsets: 
#        150
#        80661
#        92275
#        99060
#        106635
#        118415
#        126380
#        135154
#
# Disc length: 1888 seconds
#
# Revision: 0
# Processed by: cddbd v1.5.2PL0 Copyright (c) Steve Scherf et al.
# Submitted via: ExactAudioCopy v0.95b3
#
DISCID=57075e08
DTITLE=The Beatles  - Way Beyond Compare - Episode 04 The Quarry Men P
DTITLE=art 4 (July 1960)  FLAC
DYEAR=1900
DGENRE=
TTITLE0=Instrumental #2
TTITLE1=Wildcat - Take 1
TTITLE2=One After 909 - Take 2
TTITLE3=Some Days
TTITLE4=You Must Write Every Day
TTITLE5=I'll Follow The Sun
TTITLE6=Hello Little Girl
TTITLE7=Wildcat - Take 2
EXTD=
EXTT0=
EXTT1=
EXTT2=
EXTT3=
EXTT4=
EXTT5=
EXTT6=
EXTT7=
PLAYORDER=
